<svg width="76" height="52" viewBox="0 0 76 52" fill="none" xmlns="http://www.w3.org/2000/svg">
<g filter="url(#filter0_di_52_3281)">
<path d="M14 26C14 19.3726 19.3726 14 26 14H50C56.6274 14 62 19.3726 62 26C62 32.6274 56.6274 38 50 38H26C19.3726 38 14 32.6274 14 26Z" fill="#DADADA"/>
</g>
<g filter="url(#filter1_d_52_3281)">
<mask id="path-2-inside-1_52_3281" fill="white">
<path d="M17 26C17 21.0294 21.0294 17 26 17C30.9706 17 35 21.0294 35 26V26.5C35 31.4706 30.9706 35.5 26 35.5C21.0294 35.5 17 31.4706 17 26.5V26Z"/>
</mask>
<path d="M17 26C17 21.0294 21.0294 17 26 17C30.9706 17 35 21.0294 35 26V26.5C35 31.4706 30.9706 35.5 26 35.5C21.0294 35.5 17 31.4706 17 26.5V26Z" fill="#D1D6DA" shape-rendering="crispEdges"/>
<path d="M17 26C17 21.0294 21.0294 17 26 17C30.9706 17 35 21.0294 35 26V26.5C35 31.4706 30.9706 35.5 26 35.5C21.0294 35.5 17 31.4706 17 26.5V26Z" fill="url(#paint0_radial_52_3281)" shape-rendering="crispEdges"/>
<path d="M16 25.5C16 20.2533 20.2533 16 25.5 16C30.7467 16 35 20.2533 35 25.5V26C35 21.5817 30.9706 18 26 18C21.5817 18 18 21.5817 18 26L16 25.5ZM35 35.5H17H35ZM25.75 35.5C20.3652 35.5 16 31.1348 16 25.75V25.5C16 20.2533 20.2533 16 25.5 16L26 18C21.5817 18 18 21.5817 18 26V26.5C18 31.4706 21.5817 35.5 26 35.5H25.75ZM35 17V35.5V17Z" fill="white" mask="url(#path-2-inside-1_52_3281)"/>
</g>
<defs>
<filter id="filter0_di_52_3281" x="0" y="0" width="76" height="52" filterUnits="userSpaceOnUse" color-interpolation-filters="sRGB">
<feFlood flood-opacity="0" result="BackgroundImageFix"/>
<feColorMatrix in="SourceAlpha" type="matrix" values="0 0 0 0 0 0 0 0 0 0 0 0 0 0 0 0 0 0 127 0" result="hardAlpha"/>
<feMorphology radius="10" operator="erode" in="SourceAlpha" result="effect1_dropShadow_52_3281"/>
<feOffset/>
<feGaussianBlur stdDeviation="12"/>
<feComposite in2="hardAlpha" operator="out"/>
<feColorMatrix type="matrix" values="0 0 0 0 0.643208 0 0 0 0 0.681407 0 0 0 0 0.716667 0 0 0 1 0"/>
<feBlend mode="normal" in2="BackgroundImageFix" result="effect1_dropShadow_52_3281"/>
<feBlend mode="normal" in="SourceGraphic" in2="effect1_dropShadow_52_3281" result="shape"/>
<feColorMatrix in="SourceAlpha" type="matrix" values="0 0 0 0 0 0 0 0 0 0 0 0 0 0 0 0 0 0 127 0" result="hardAlpha"/>
<feOffset dx="1" dy="1"/>
<feGaussianBlur stdDeviation="2"/>
<feComposite in2="hardAlpha" operator="arithmetic" k2="-1" k3="1"/>
<feColorMatrix type="matrix" values="0 0 0 0 0.643137 0 0 0 0 0.682353 0 0 0 0 0.717647 0 0 0 1 0"/>
<feBlend mode="normal" in2="shape" result="effect2_innerShadow_52_3281"/>
</filter>
<filter id="filter1_d_52_3281" x="11" y="11" width="34" height="34.5" filterUnits="userSpaceOnUse" color-interpolation-filters="sRGB">
<feFlood flood-opacity="0" result="BackgroundImageFix"/>
<feColorMatrix in="SourceAlpha" type="matrix" values="0 0 0 0 0 0 0 0 0 0 0 0 0 0 0 0 0 0 127 0" result="hardAlpha"/>
<feOffset dx="2" dy="2"/>
<feGaussianBlur stdDeviation="4"/>
<feComposite in2="hardAlpha" operator="out"/>
<feColorMatrix type="matrix" values="0 0 0 0 0.643137 0 0 0 0 0.682353 0 0 0 0 0.717647 0 0 0 0.5 0"/>
<feBlend mode="normal" in2="BackgroundImageFix" result="effect1_dropShadow_52_3281"/>
<feBlend mode="normal" in="SourceGraphic" in2="effect1_dropShadow_52_3281" result="shape"/>
</filter>
<radialGradient id="paint0_radial_52_3281" cx="0" cy="0" r="1" gradientUnits="userSpaceOnUse" gradientTransform="translate(26 26.25) rotate(90) scale(31.7518 30.8936)">
<stop stop-color="white"/>
<stop offset="1" stop-color="white" stop-opacity="0"/>
</radialGradient>
</defs>
</svg>
